<?xml version="1.0" standalone="no"?>
<!DOCTYPE svg PUBLIC "-//W3C//DTD SVG 20010904//EN"
 "http://www.w3.org/TR/2001/REC-SVG-20010904/DTD/svg10.dtd">
<svg version="1.0" xmlns="http://www.w3.org/2000/svg"
 width="504.000000pt" height="504.000000pt" viewBox="0 0 504.000000 504.000000"
 preserveAspectRatio="xMidYMid meet">
<metadata>
Created by potrace 1.14, written by Peter Selinger 2001-2017
</metadata>
<g transform="translate(0.000000,504.000000) scale(0.100000,-0.100000)"
fill="#000000" stroke="none">
<path d="M500 5024 c-177 -38 -348 -171 -429 -334 -76 -155 -71 -2 -71 -2170
0 -2170 -5 -2014 72 -2169 81 -165 254 -299 433 -336 105 -22 3925 -22 4030 0
238 50 440 252 490 490 22 105 22 3925 0 4030 -50 238 -252 440 -490 490 -102
21 -3935 21 -4035 -1z m2196 -1520 c24 -12 41 -32 61 -72 26 -53 27 -62 26
-195 l-1 -139 51 6 c29 4 80 9 113 13 l62 5 11 -35 c8 -24 9 -42 2 -54 -20
-38 -89 -93 -161 -131 l-75 -39 -3 -104 c-1 -57 2 -111 8 -119 8 -13 44 2 222
93 184 94 219 108 253 105 37 -3 40 -5 43 -36 3 -28 -8 -48 -66 -126 -68 -90
-75 -96 -257 -216 l-188 -124 6 -131 c3 -71 13 -166 21 -210 9 -44 19 -148 22
-231 7 -146 6 -152 -14 -172 -18 -18 -34 -22 -86 -22 -98 0 -113 17 -142 161
-12 63 -33 183 -45 267 -24 164 -25 165 -82 143 -47 -18 -57 -38 -57 -109 0
-37 7 -110 15 -162 36 -233 9 -333 -93 -347 -35 -5 -55 2 -101 34 -8 5 -40
251 -41 308 -1 90 -4 93 -94 60 -65 -24 -86 -27 -152 -23 -54 4 -83 11 -102
25 -33 24 -36 40 -22 93 14 53 61 87 179 129 119 43 131 58 130 160 -1 42 -4
101 -7 131 -7 54 -7 55 -39 54 -20 -1 -61 -20 -104 -47 -39 -25 -83 -49 -99
-52 -77 -17 -180 51 -180 118 0 51 37 82 209 179 205 116 190 97 201 258 5 74
9 194 10 267 0 156 4 163 103 163 52 0 61 -3 87 -31 32 -36 39 -79 42 -268 1
-62 7 -119 13 -127 9 -12 18 -12 65 4 44 15 56 24 63 48 5 16 11 124 14 239 2
125 9 219 15 233 20 39 106 53 164 26z"/>
<path d="M2428 2697 l-58 -32 0 -111 c0 -124 7 -174 24 -174 6 1 36 16 66 34
l55 32 0 140 c0 161 1 160 -87 111z"/>
</g>
</svg>
